HIERARCHY
ROOT Hip
{
	OFFSET	0.00  0.00  0.00 
	CHANNELS 6 Xposition Yposition Zposition Xrotation Zrotation Yrotation
	JOINT Abdomen
	{
		OFFSET	0.039181 5.637571 0.560720
		CHANNELS 3 Xrotation Zrotation Yrotation
		JOINT Chest
		{
			OFFSET	-0.136063 7.190207 -0.124363
			CHANNELS 3 Xrotation Zrotation Yrotation
			JOINT Neck
			{
				OFFSET	0.193764 10.560151 -1.259468
				CHANNELS 3 Xrotation Zrotation Yrotation
				JOINT Head
				{
					OFFSET	-0.096882 0.362727 0.622109
					CHANNELS 3 Xrotation Zrotation Yrotation
					JOINT LeftEye
					{
						OFFSET	1.356350 5.062673 4.221998
						CHANNELS 3 Zrotation Yrotation Xrotation
						End Site
						{
							OFFSET 0.000000 0.000000 0.871939
						}
					}
					JOINT RightEye
					{
						OFFSET	-1.356350 5.062673 4.221998
						CHANNELS 3 Zrotation Yrotation Xrotation
						End Site
						{
							OFFSET 0.000000 0.000000 0.871939
						}
					}
				}
			}
			JOINT RightCollar
			{
				OFFSET	-3.778404 4.940989 0.193764
				CHANNELS 3 Yrotation Zrotation Xrotation
				JOINT RightShoulder
				{
					OFFSET	-2.615818 1.356350 -0.484411
					CHANNELS 3 Zrotation Yrotation Xrotation
					JOINT RightForearm
					{
						OFFSET	-11.432094 0.484410 -1.937643
						CHANNELS 3 Yrotation Zrotation Xrotation
						JOINT RightHand
						{
							OFFSET	-10.657035 -0.096881 0.581293
							CHANNELS 3 Zrotation Yrotation Xrotation
							JOINT RightThumb1
							{
								OFFSET	-0.678175 -0.581297 0.968821
								CHANNELS 3 Zrotation Yrotation Xrotation
								JOINT RightThumb2
								{
									OFFSET	-0.968823 -0.484410 0.484411
									CHANNELS 3 Zrotation Yrotation Xrotation
									JOINT RightThumb3
									{
										OFFSET	-0.929680 -0.497680 0.055639
										CHANNELS 3 Zrotation Yrotation Xrotation
										End Site
										{
											OFFSET -1.097190 -0.513867 -0.001182
										}
									}
								}
							}
							JOINT RightIndex1
							{
								OFFSET	-3.003348 0.581291 1.259468
								CHANNELS 3 Zrotation Yrotation Xrotation
								JOINT RightIndex2
								{
									OFFSET	-1.468153 -0.266718 0.069755
									CHANNELS 3 Zrotation Yrotation Xrotation
									JOINT RightIndex3
									{
										OFFSET	-0.944212 -0.382684 -0.083028
										CHANNELS 3 Zrotation Yrotation Xrotation
										End Site
										{
											OFFSET -0.675657 -0.558718 0.000000
										}
									}
								}
							}
							JOINT RightMid1
							{
								OFFSET	-3.197113 0.581291 0.290646
								CHANNELS 3 Zrotation Yrotation Xrotation
								JOINT RightMid2
								{
									OFFSET	-1.550115 -0.387529 0.000000
									CHANNELS 3 Zrotation Yrotation Xrotation
									JOINT RightMid3
									{
										OFFSET	-0.731071 -0.803926 0.018214
										CHANNELS 3 Zrotation Yrotation Xrotation
										End Site
										{
											OFFSET -0.366992 -0.937043 0.083406
										}
									}
								}
							}
							JOINT RightRing1
							{
								OFFSET	-3.197113 0.387529 -0.678175
								CHANNELS 3 Zrotation Yrotation Xrotation
								JOINT RightRing2
								{
									OFFSET	-1.259466 -0.484410 0.096882
									CHANNELS 3 Zrotation Yrotation Xrotation
									JOINT RightRing3
									{
										OFFSET	-0.551552 -0.801218 0.111221
										CHANNELS 3 Zrotation Yrotation Xrotation
										End Site
										{
											OFFSET -0.245208 -0.810324 0.000000
										}
									}
								}
							}
							JOINT RightPinky1
							{
								OFFSET	-2.809584 -0.096881 -1.453232
								CHANNELS 3 Zrotation Yrotation Xrotation
								JOINT RightPinky2
								{
									OFFSET	-0.984323 -0.316034 0.039140
									CHANNELS 3 Zrotation Yrotation Xrotation
									JOINT RightPinky3
									{
										OFFSET	-0.468908 -0.555906 0.057742
										CHANNELS 3 Zrotation Yrotation Xrotation
										End Site
										{
											OFFSET -0.479664 -0.640198 0.044081
										}
									}
								}
							}
						}
					}
				}
			}
			JOINT LeftCollar
			{
				OFFSET	3.972168 4.940989 0.193764
				CHANNELS 3 Yrotation Zrotation Xrotation
				JOINT LeftShoulder
				{
					OFFSET	2.615818 1.356350 -0.484411
					CHANNELS 3 Zrotation Yrotation Xrotation
					JOINT LeftForearm
					{
						OFFSET	11.432094 0.484410 -1.937643
						CHANNELS 3 Yrotation Zrotation Xrotation
						JOINT LeftHand
						{
							OFFSET	10.657035 -0.096881 0.581293
							CHANNELS 3 Zrotation Yrotation Xrotation
							JOINT LeftThumb1
							{
								OFFSET	0.678175 -0.581297 0.968821
								CHANNELS 3 Zrotation Yrotation Xrotation
								JOINT LeftThumb2
								{
									OFFSET	0.968823 -0.484410 0.484411
									CHANNELS 3 Zrotation Yrotation Xrotation
									JOINT LeftThumb3
									{
										OFFSET	0.929680 -0.497680 0.055639
										CHANNELS 3 Zrotation Yrotation Xrotation
										End Site
										{
											OFFSET 1.097190 -0.513867 -0.001182
										}
									}
								}
							}
							JOINT LeftIndex1
							{
								OFFSET	3.003348 0.581291 1.259468
								CHANNELS 3 Zrotation Yrotation Xrotation
								JOINT LeftIndex2
								{
									OFFSET	1.468153 -0.266718 0.069755
									CHANNELS 3 Zrotation Yrotation Xrotation
									JOINT LeftIndex3
									{
										OFFSET	0.944212 -0.382684 -0.083028
										CHANNELS 3 Zrotation Yrotation Xrotation
										End Site
										{
											OFFSET 0.675657 -0.558718 0.000000
										}
									}
								}
							}
							JOINT LeftMid1
							{
								OFFSET	3.197113 0.581291 0.290646
								CHANNELS 3 Zrotation Yrotation Xrotation
								JOINT LeftMid2
								{
									OFFSET	1.550115 -0.387529 0.000000
									CHANNELS 3 Zrotation Yrotation Xrotation
									JOINT LeftMid3
									{
										OFFSET	0.731071 -0.803926 0.018214
										CHANNELS 3 Zrotation Yrotation Xrotation
										End Site
										{
											OFFSET 0.366992 -0.937043 0.083406
										}
									}
								}
							}
							JOINT LeftRing1
							{
								OFFSET	3.197113 0.387529 -0.678175
								CHANNELS 3 Zrotation Yrotation Xrotation
								JOINT LeftRing2
								{
									OFFSET	1.259466 -0.484410 0.096882
									CHANNELS 3 Zrotation Yrotation Xrotation
									JOINT LeftRing3
									{
										OFFSET	0.551552 -0.801218 0.111221
										CHANNELS 3 Zrotation Yrotation Xrotation
										End Site
										{
											OFFSET 0.245208 -0.810324 0.000000
										}
									}
								}
							}
							JOINT LeftPinky1
							{
								OFFSET	2.809584 -0.096881 -1.453232
								CHANNELS 3 Zrotation Yrotation Xrotation
								JOINT LeftPinky2
								{
									OFFSET	0.984323 -0.316034 0.039140
									CHANNELS 3 Zrotation Yrotation Xrotation
									JOINT LeftPinky3
									{
										OFFSET	0.468908 -0.555906 0.057742
										CHANNELS 3 Zrotation Yrotation Xrotation
										End Site
										{
											OFFSET 0.479664 -0.640198 0.044081
										}
									}
								}
							}
						}
					}
				}
			}
		}
	}
	JOINT RightThigh
	{
		OFFSET	-3.875286 0.717509 0.339475
		CHANNELS 3 Xrotation Zrotation Yrotation
		JOINT RightShin
		{
			OFFSET	-0.434323 -20.673391 0.003424
			CHANNELS 3 Xrotation Zrotation Yrotation
			JOINT RightFoot
			{
				OFFSET	-0.063555 -15.653578 -0.075717
				CHANNELS 3 Xrotation Yrotation Zrotation
				JOINT RightToe
				{
					OFFSET	-0.513669 -2.790361 5.061637
					CHANNELS 3 Xrotation Yrotation Zrotation
					End Site
					{
						OFFSET 0.000000 -0.280183 2.993164
					}
				}
			}
		}
	}
	JOINT LeftThigh
	{
		OFFSET	3.875286 0.717509 0.339475
		CHANNELS 3 Xrotation Zrotation Yrotation
		JOINT LeftShin
		{
			OFFSET	0.434323 -20.673391 0.003424
			CHANNELS 3 Xrotation Zrotation Yrotation
			JOINT LeftFoot
			{
				OFFSET	0.063555 -15.653578 -0.075717
				CHANNELS 3 Xrotation Yrotation Zrotation
				JOINT LeftToe
				{
					OFFSET	0.513669 -2.874842 4.946725
					CHANNELS 3 Xrotation Yrotation Zrotation
					End Site
					{
						OFFSET 0.000000 -0.195702 3.108076
					}
				}
			}
		}
	}
}
MOTION
Frames:     4
Frame Time: 0.033333
0.000000 38.742489 0.000000 5.977010 -0.699306 -28.024500 -2.664330 8.252910 -11.453000 11.470000 4.996390 1.023870 0.000000 0.000000 0.000000 -17.332300 -15.304600 10.481900 0.000000 0.000000 0.000000 0.000000 0.000000 0.000000 -5.498120 -22.068600 0.064918 84.206306 0.001523 -26.324593 44.111061 -0.703556 -0.515953 -10.135081 -25.044746 1.153651 -2.196803 8.088476 9.363434 14.045960 8.200828 -17.027071 -4.667157 11.532217 -17.436045 0.000000 0.000000 0.000000 10.247213 9.822695 -5.878980 -8.823756 3.416048 -6.315851 -0.175781 0.000000 0.000000 8.244953 -1.502700 0.722675 -12.838020 -2.429856 5.230082 -0.175781 0.000000 0.000000 -0.156757 -5.465929 4.370303 -17.719269 -3.972915 -0.926374 -0.175781 0.000000 0.000000 7.752715 -4.393883 3.036627 4.441531 -3.901016 1.855662 4.385090 15.841000 -0.320443 -64.116203 -60.007565 -11.415410 -58.706623 0.178519 -0.651804 15.871881 12.394036 3.342519 1.301079 -8.886789 9.164861 3.020779 -8.414250 -17.094839 3.918523 -12.334853 -17.914333 0.000000 0.000000 0.000000 -26.058514 -10.005517 -5.939190 -17.008429 -3.570157 -6.428789 -0.175781 0.000000 0.000000 -0.351563 0.000000 0.000000 -21.667566 1.148763 4.187686 -0.175781 0.000000 0.000000 -0.736324 5.381598 4.224761 16.871576 3.912536 -1.093365 -0.175781 0.000000 0.000000 -8.641175 4.276957 2.914167 -5.330077 3.798435 1.717381 -36.873714 -5.950359 -23.604885 30.760750 0.000230 -0.303299 6.445482 -17.115067 0.196863 -0.000457 0.016384 -0.175016 8.696155 8.885098 5.963296 40.428036 -0.238913 0.259636 22.550604 16.794151 -8.379309 0.000000 0.000000 0.000000 
-1.985474 39.551735 2.208661 5.098520 -1.050520 -28.924900 -1.774690 7.906410 -9.734060 11.643300 4.821090 1.706540 0.000000 0.000000 0.000000 -16.732901 -14.673900 8.213770 0.000000 0.000000 0.000000 0.000000 0.000000 0.000000 -5.673790 -21.702700 -0.144202 83.490013 2.633599 -20.851053 43.234188 -0.369102 -0.797153 -11.705277 -26.145288 1.100442 -2.196803 8.088476 9.363434 14.045960 8.200828 -17.027071 -4.667157 11.532217 -17.436045 0.000000 0.000000 0.000000 10.247213 9.822695 -5.878980 -8.823756 3.416048 -6.315851 -0.175781 0.000000 0.000000 8.244953 -1.502700 0.722675 -12.838020 -2.429856 5.230082 -0.175781 0.000000 0.000000 -0.156757 -5.465929 4.370303 -17.719269 -3.972915 -0.926374 -0.175781 0.000000 0.000000 7.752715 -4.393883 3.036627 4.441531 -3.901016 1.855662 4.381300 15.665700 -0.307480 -71.103905 -57.017273 -2.055811 -55.542683 0.180164 -0.622254 15.328685 15.182487 6.483870 1.301079 -8.886789 9.164861 3.020779 -8.414250 -17.094839 3.918523 -12.334853 -17.914333 0.000000 0.000000 0.000000 -26.058514 -10.005517 -5.939190 -17.008429 -3.570157 -6.428789 -0.175781 0.000000 0.000000 -0.351563 0.000000 0.000000 -21.667566 1.148763 4.187686 -0.175781 0.000000 0.000000 -0.736324 5.381598 4.224761 16.871576 3.912536 -1.093365 -0.175781 0.000000 0.000000 -8.641175 4.276957 2.914167 -5.330077 3.798435 1.717381 -31.145311 -4.999328 -24.651968 30.057631 0.000241 -0.300246 3.643737 -15.698442 0.041665 -0.000457 0.016384 -0.175016 2.774962 9.230420 6.782711 46.757214 -0.149900 0.136763 29.110628 18.232315 -10.253700 0.000000 0.000000 0.000000 
-3.989849 40.409004 4.418359 4.044510 -1.578100 -29.823299 -0.709288 7.558020 -8.002640 11.819700 4.818030 2.600210 0.000000 0.000000 0.000000 -15.958300 -14.050300 5.871370 0.000000 0.000000 0.000000 0.000000 0.000000 0.000000 -5.855780 -21.510500 -0.367689 82.712791 5.604599 -15.360545 42.355171 -0.380953 -0.787770 -13.479073 -27.915297 1.376301 -2.196803 8.088476 9.363434 14.045960 8.200828 -17.027071 -4.667157 11.532217 -17.436045 0.000000 0.000000 0.000000 10.247213 9.822695 -5.878980 -8.823756 3.416048 -6.315851 -0.175781 0.000000 0.000000 8.244953 -1.502700 0.722675 -12.838020 -2.429856 5.230082 -0.175781 0.000000 0.000000 -0.156757 -5.465929 4.370303 -17.719269 -3.972915 -0.926374 -0.175781 0.000000 0.000000 7.752715 -4.393883 3.036627 4.441531 -3.901016 1.855662 4.377470 15.477500 -0.469808 -76.599754 -53.747314 5.590174 -52.204769 -0.146554 -0.558800 15.417856 18.029123 9.859032 1.301079 -8.886789 9.164861 3.020779 -8.414250 -17.094839 3.918523 -12.334853 -17.914333 0.000000 0.000000 0.000000 -26.058514 -10.005517 -5.939190 -17.008429 -3.570157 -6.428789 -0.175781 0.000000 0.000000 -0.351563 0.000000 0.000000 -21.667566 1.148763 4.187686 -0.175781 0.000000 0.000000 -0.736324 5.381598 4.224761 16.871576 3.912536 -1.093365 -0.175781 0.000000 0.000000 -8.641175 4.276957 2.914167 -5.330077 3.798435 1.717381 -24.565500 -3.661418 -25.768236 27.069372 0.000305 -0.287373 1.550971 -14.056011 -0.168699 -0.000457 0.016384 -0.175016 -2.981281 9.994190 7.429987 52.554588 -0.559775 0.306367 35.583519 20.207972 -12.092993 0.000000 0.000000 0.000000 
-5.956411 41.234875 6.625973 3.165860 -1.930650 -30.874201 0.177113 7.031250 -5.933500 11.993100 4.642970 3.457060 0.000000 0.000000 0.000000 -15.348400 -13.069300 3.539100 0.000000 0.000000 0.000000 0.000000 0.000000 0.000000 -6.037460 -21.334400 -0.415104 82.262741 8.607282 -9.888355 41.654732 -0.217158 -0.663489 -14.709166 -28.934765 1.122054 -2.196803 8.088476 9.363434 14.045960 8.200828 -17.027071 -4.667157 11.532217 -17.436045 0.000000 0.000000 0.000000 10.247213 9.822695 -5.878980 -8.823756 3.416048 -6.315851 -0.175781 0.000000 0.000000 8.244953 -1.502700 0.722675 -12.838020 -2.429856 5.230082 -0.175781 0.000000 0.000000 -0.156757 -5.465929 4.370303 -17.719269 -3.972915 -0.926374 -0.175781 0.000000 0.000000 7.752715 -4.393883 3.036627 4.441531 -3.901016 1.855662 4.191540 15.303600 -0.410429 -80.046165 -49.693939 11.351673 -49.217606 -0.309050 -0.414446 15.088784 20.789808 12.631723 1.301079 -8.886789 9.164861 3.020779 -8.414250 -17.094839 3.918523 -12.334853 -17.914333 0.000000 0.000000 0.000000 -26.058514 -10.005517 -5.939190 -17.008429 -3.570157 -6.428789 -0.175781 0.000000 0.000000 -0.351563 0.000000 0.000000 -21.667566 1.148763 4.187686 -0.175781 0.000000 0.000000 -0.736324 5.381598 4.224761 16.871576 3.912536 -1.093365 -0.175781 0.000000 0.000000 -8.641175 4.276957 2.914167 -5.330077 3.798435 1.717381 -16.829971 -1.729033 -26.827240 21.620914 0.000426 -0.088679 0.181187 -12.171192 -0.405367 -0.000457 0.016384 -0.175016 -8.590470 9.984673 8.398906 55.717381 -0.748669 0.204301 38.482018 20.920708 -13.526804 0.000000 0.000000 0.000000 
